<?xml version="1.0" encoding="UTF-8"?>
<!DOCTYPE svg PUBLIC "-//W3C//DTD SVG 1.1//EN" "http://www.w3.org/Graphics/SVG/1.1/DTD/svg11.dtd">
<!-- Creator: CorelDRAW 2020 (64 Bit) -->
<svg xmlns="http://www.w3.org/2000/svg" xml:space="preserve" width="34.1006mm" height="29.3182mm" version="1.1" style="shape-rendering:geometricPrecision; text-rendering:geometricPrecision; image-rendering:optimizeQuality; fill-rule:evenodd; clip-rule:evenodd"
viewBox="0 0 2571.42 2210.79"
 xmlns:xlink="http://www.w3.org/1999/xlink"
 xmlns:xodm="http://www.corel.com/coreldraw/odm/2003">
 <defs>
  <style type="text/css">
   <![CDATA[
    .str0 {stroke:black;stroke-width:15.08;stroke-miterlimit:22.9256}
    .fil0 {fill:black}
   ]]>
  </style>
 </defs>
 <g id="Camada_x0020_1">
  <metadata id="CorelCorpID_0Corel-Layer"/>
  <path class="fil0 str0" d="M424.51 748.41c52.68,-106.91 154.16,-399.74 541.5,-592.64 0,88.32 -6.98,176.63 6.97,264.94 -132.66,88.59 -204.19,189.4 -274.23,290.5 -117.91,-7.47 -205.91,7.48 -274.24,37.19z"/>
  <path class="fil0 str0" d="M410.56 1018c-10.4,125.33 -219.15,210.43 -296.94,129.71 -110.5,-114.67 117.94,-231.08 201.86,-261.64 123.02,-44.79 291.31,-84.46 417.32,-37.09 146.46,55.05 138.9,131.02 36.07,215.97 -75.32,62.23 -139.22,88.24 -193.29,83.19 50.82,-154.03 44.85,-260.8 -59.26,-266.1 16.97,44.8 -0.69,97.67 -24.69,155.39 -51.05,122.82 -93.65,290.17 -111.89,422.69 -13.28,96.5 5.27,157.66 87.77,183.04 -48.95,-40.27 12.31,-208.5 79.02,-412.51 82.63,-25.89 304.11,-50.97 368.17,19.92 39.62,43.84 21.81,113.12 -47.45,193.89 -76,86.63 -152.74,172.93 -310.26,221.94 -141.35,47.2 -267.3,59.74 -359.06,-4.65 131.83,200.28 370.16,133.06 547.85,38.18 36.84,-19.67 72.11,-42.18 105.74,-67.64 105.75,-80.09 183.56,-170.52 163.95,-313.95 -12.68,-92.75 -81.11,-168.02 -238.86,-178.34 58.35,-24.71 237.03,-140.75 133.64,-302.12 -103.9,-105.59 -361.79,-82.92 -530.34,-22.18 -86.57,31.19 -158.75,71.62 -227.3,118.63 -339.86,243.18 -4.03,464.12 208.21,271.11 64.94,-59.06 94.81,-139.88 49.75,-187.45z"/>
  <path class="fil0 str0" d="M694.1 1524.64c-55.45,-85.7 -79.74,-169.56 -82.5,-252.16 -9.3,7.36 -12.78,17.04 -22.08,24.4 -43,112.33 -56.94,216.52 -85.99,319.56 78.71,-11.88 136.66,-52.04 190.58,-91.8z"/>
  <path class="fil0 str0" d="M845.17 1715.22c147.47,143.98 324.03,221.42 501.99,239.83l0 -120.15c-99.16,-109.23 -225.04,-183.6 -297.48,-327.69 52.22,40.15 118.99,52.6 174.31,-12.79 -28.98,-57.25 -38.42,-101.94 -11.62,-149.89 14.72,0 29.43,0 44.15,0 4.65,78.76 34.07,139.7 116.21,162.68 12.78,29.44 18.59,77.47 31.37,106.9 0,0 3.07,247.45 4.22,344.87 24.78,0.69 49.52,0.26 74.16,-1.27l-7.49 -444.68c69.16,-4.55 128.78,-41.55 182.44,-98.78 13.49,41.59 43.06,61.06 81.34,68.56 -71.66,65.85 -143.32,131.7 -214.97,197.54l-2.13 273.93c277.68,-30.73 536.25,-202.33 666.8,-485.42 38.86,3.41 71.15,-21.23 97.61,-48.81 59.65,47.97 117.76,43.44 174.3,-13.94 -111.26,722.76 -1237.46,1146.56 -1847.61,420.66 77.47,-37.18 154.93,-74.37 232.4,-111.56z"/>
  <path class="fil0 str0" d="M1061.31 112.79c225.57,-70.9 440.65,-84.03 641.43,-18.59 -77.4,63.52 -141.06,127.05 -181.28,190.57 -103.13,-6.29 -193.58,0.09 -271.91,18.6 -62.75,-63.52 -125.5,-127.05 -188.25,-190.58z"/>
  <path class="fil0 str0" d="M1921.2 173.22c223.89,100.45 381.91,273.72 488.05,504.31 -17.82,73.6 -44.93,147.19 -62.75,220.78 -37.18,4.65 -65.07,9.3 -102.25,13.94 -54.3,-225.04 -188.15,-383.1 -360.23,-508.96 30.01,-44.4 44.36,-117.51 37.19,-230.08z"/>
  <path class="fil0 str0" d="M1019.47 647.32c113.1,110.77 226.21,221.55 339.31,332.33 -78.29,-4.68 -102.43,17.74 -118.52,44.16 -92.12,-64.16 -152.68,-65.2 -176.63,6.98 -52.43,-102.68 -48.22,-243.13 -44.16,-383.47z"/>
  <path class="fil0 str0" d="M1479.63 968.03c110.24,-30.52 198.89,-26.85 234.73,60.42 223.54,-141.12 112.5,-390.77 151.06,-532.21 -79.02,81.35 -158.04,162.68 -237.06,244.02 -91.97,66.14 -137.33,143.03 -148.73,227.76z"/>
  <path class="fil0 str0" d="M1407.59 939c0.38,-92.19 0.77,-184.38 1.16,-276.56 -2.89,-61.19 -22.52,-117.48 -57.41,-167.35 -46.61,-66.59 -252,-256.9 -320.25,-323.02 -9.15,204.97 -41.35,327.56 111.56,495.02 88.31,90.64 176.63,181.28 264.94,271.92z"/>
  <path class="fil0 str0" d="M1473.83 784.44c86.37,-85.99 172.75,-171.98 259.13,-257.97 139.1,-122.75 145.32,-309.28 128.98,-506.64 -117.8,150.9 -251.44,225.41 -339.23,357.94 -78.09,117.88 -48.88,270.89 -48.88,406.66z"/>
  <path class="fil0 str0" d="M1144.98 1471.2c-10.83,-88.87 7.34,-164.84 52.29,-228.92 23.87,-45.67 46.22,-92.55 85.99,-125.5 -30.9,110.29 -0.09,131.03 59.26,134.8 -40.38,121.62 -26.26,201.82 88.32,205.68 108.93,-1.87 184.29,-53.13 240.54,-132.47 39.25,129.74 132.71,126.75 212.65,36.02 62.99,92.43 127.97,62.53 194.06,-37.18 63.18,99.57 132.82,111.14 211.49,0 45.84,82.19 100.97,88.63 168.5,-5.81 43.78,-65.14 77.07,-128.53 102.26,-190.58 -15.11,-0.38 -30.22,-0.78 -45.32,-1.16 -22.86,44.54 -45.7,89.09 -68.56,133.64 -56.4,95.7 -72.98,90.99 -58.1,6.97 70.24,-176.24 126.14,-352.48 168.5,-528.71 -25.16,-34.73 -53.08,-62.53 -90.64,-66.24 -27.12,99.54 -54.23,199.09 -81.34,298.63 -159.57,-47.22 -297.96,138.03 -309.1,282.38 -12.01,14.72 -24.02,29.44 -36.02,44.16 -52.25,85.15 -82.16,94.99 -47.64,-24.4 13.17,-40.67 34.47,-77.86 47.64,-118.53 -29.24,-12.38 -61.74,-31.28 -94.12,-49.96 -6,64.11 -19.95,132.28 -56.95,177.79 -110.4,186.08 -139.13,96.07 -91.79,-47.64 19.78,-51.99 45.25,-103.34 92.96,-152.22 46.79,-35.53 77.16,-38.83 92.96,-9.3 0.78,6.2 1.55,12.4 2.32,18.6 13.17,1.94 26.34,3.88 39.51,5.81 5.17,-100.71 -73.79,-131.17 -161.53,-96.45 -147.71,88.64 -184.77,186.31 -198.7,290.5 -87.27,85.79 -160.24,136.55 -230.08,120.85 -42.7,-22.89 -56.09,-56.62 -32.54,-95.28 126.91,-8.63 222.48,-66.51 262.62,-211.49 -1.21,-53.81 8.94,-114.11 -125.5,-91.8 -98.46,56.16 -133.48,112.33 -160.35,168.5 -35.8,24.32 -44.77,-0.31 -27.89,-72.04 12.39,-46.56 31.66,-99.06 -69.72,-47.64 -39.31,32.39 -64.12,82.92 -90.64,131.31 8.52,-32.15 17.04,-64.3 25.56,-96.45 -34.68,-53.68 -67.19,-68.35 -98.77,-66.24 7.36,38.73 -2.71,69.33 -9.3,105.74 -17.82,68.56 -38.54,140.6 -56.36,209.16 -2.62,97.13 27.99,132.17 93.54,125.5zm281.2 -189.41c-11.2,-40.97 99.89,-182.12 140.61,-191.73 24.35,57.78 -64.62,187.15 -140.61,191.73zm941.24 -245.19c1.36,1.16 -90.68,361.95 -189.41,310.26 1.84,-85.57 2.07,-180.49 115.91,-297.19 25.62,-27.46 63.26,-39.05 73.5,-13.08z"/>
 </g>
</svg>
